<svg width="1024" height="674" viewBox="0 0 1024 674" fill="none" xmlns="http://www.w3.org/2000/svg">
<path d="M443.953 274.235L435.368 334.982L443.953 395.729L504.826 402.871L565.689 395.729L572.846 334.982L565.689 274.235L504.826 265.669L443.953 274.235ZM362.795 193.246L504.826 184.669L646.846 193.246L658.295 334.982L646.846 476.718L504.826 485.284L362.795 476.718L354.211 334.982L362.795 193.246Z" fill="#1D1D1B"/>
<path d="M656.068 72.9336H919.704L930.01 333.761L919.791 599.404H655.828V482.204H727.323H798.829L809.08 333.75L798.829 189.742L656.068 189.59V72.9336Z" fill="#1D1D1B"/>
<path d="M356.2 72.9336L91.9649 72.9662L81.7031 333.75L91.9649 599.817H355.928V482.628H212.939L202.677 333.75L212.939 190.166L356.2 189.59V72.9336Z" fill="#1D1D1B"/>
</svg>
